<svg width="32" height="33" viewBox="0 0 32 33" fill="none" xmlns="http://www.w3.org/2000/svg">
<path opacity="0.1" fill-rule="evenodd" clip-rule="evenodd" d="M0 16.6816C0 7.84509 7.16344 0.681641 16 0.681641C24.8366 0.681641 32 7.84509 32 16.6816C32 25.5182 24.8366 32.6816 16 32.6816C7.16344 32.6816 0 25.5182 0 16.6816Z" fill="white"/>
<path fill-rule="evenodd" clip-rule="evenodd" d="M24.5333 16.6699C24.5333 17.247 24.4746 17.8233 24.3592 18.3851C24.2467 18.9335 24.08 19.4719 23.8616 19.9866C23.6483 20.4922 23.3837 20.9794 23.0745 21.4337C22.77 21.8852 22.4191 22.3088 22.0336 22.6949C21.6474 23.0794 21.2224 23.4293 20.7711 23.7351C20.3152 24.0422 19.8273 24.3064 19.3214 24.5207C18.806 24.7379 18.2664 24.9043 17.7184 25.0166C17.1559 25.1323 16.5775 25.1914 15.9996 25.1914C15.4212 25.1914 14.8429 25.1323 14.2812 25.0166C13.7324 24.9043 13.1928 24.7379 12.6778 24.5207C12.1719 24.3064 11.6836 24.0422 11.2277 23.7351C10.7764 23.4293 10.3514 23.0794 9.96597 22.6949C9.58013 22.3088 9.22926 21.8852 8.92425 21.4337C8.61673 20.9794 8.3517 20.4921 8.13754 19.9866C7.91917 19.4719 7.7521 18.9334 7.63917 18.3851C7.52501 17.8233 7.46666 17.247 7.46666 16.6699C7.46666 16.0924 7.52498 15.5149 7.63921 14.9544C7.75213 14.406 7.9192 13.8667 8.13757 13.3529C8.35173 12.8469 8.61677 12.3593 8.92428 11.9049C9.2293 11.453 9.58017 11.0303 9.96601 10.6437C10.3514 10.2592 10.7765 9.91016 11.2277 9.60476C11.6836 9.29642 12.172 9.03224 12.6778 8.81751C13.1928 8.59986 13.7324 8.43303 14.2812 8.32154C14.8429 8.2067 15.4213 8.14844 15.9996 8.14844C16.5776 8.14844 17.1559 8.2067 17.7185 8.32154C18.2664 8.43306 18.806 8.59989 19.3215 8.81751C19.8273 9.0322 20.3153 9.29642 20.7711 9.60476C21.2224 9.91016 21.6474 10.2592 22.0337 10.6437C22.4191 11.0303 22.77 11.453 23.0746 11.9049C23.3837 12.3593 23.6483 12.847 23.8616 13.3529C24.08 13.8667 24.2467 14.406 24.3592 14.9544C24.4746 15.5149 24.5333 16.0924 24.5333 16.6699ZM12.8902 10.0878C10.858 11.0461 9.34129 12.916 8.86834 15.1695C9.06046 15.1712 12.0973 15.2095 15.5962 14.2811C14.3349 12.0434 12.9873 10.2173 12.8902 10.0878ZM16.2 15.4017C12.4477 16.5234 8.8471 16.4427 8.71794 16.4378C8.71583 16.516 8.71209 16.5917 8.71209 16.6699C8.71209 18.5394 9.41838 20.2437 10.5793 21.5323C10.5768 21.5286 12.5711 17.9956 16.5038 16.7257C16.5987 16.6941 16.6954 16.6658 16.7913 16.6383C16.6084 16.2247 16.4087 15.8103 16.2 15.4017ZM20.8123 11.2084C19.5293 10.0787 17.8447 9.3934 15.9996 9.3934C15.4075 9.3934 14.8328 9.46497 14.2824 9.59728C14.3916 9.74376 15.7604 11.5571 17.0067 13.8422C19.7565 12.8128 20.7944 11.235 20.8123 11.2084ZM17.288 17.8441C17.2718 17.8495 17.2556 17.8541 17.2397 17.8599C12.94 19.3567 11.5358 22.3732 11.5206 22.4061C12.7578 23.3668 14.3095 23.9465 15.9996 23.9465C17.0088 23.9465 17.9701 23.7413 18.8447 23.3698C18.7368 22.734 18.3135 20.5054 17.288 17.8441ZM20.0719 22.7049C21.7082 21.6023 22.8703 19.8514 23.1945 17.8233C23.0445 17.775 21.0057 17.1305 18.6534 17.5071C19.6093 20.1301 19.9977 22.2663 20.0719 22.7049ZM17.5676 14.9265C17.7368 15.2735 17.9006 15.6267 18.0518 15.9817C18.1056 16.109 18.1581 16.2339 18.2093 16.3587C20.7128 16.0441 23.1791 16.5734 23.2846 16.595C23.2679 14.8699 22.65 13.2867 21.6274 12.0472C21.6137 12.0667 20.4449 13.7531 17.5676 14.9265Z" fill="white"/>
</svg>
