<svg width="17" height="18" viewBox="0 0 17 18" fill="none" xmlns="http://www.w3.org/2000/svg">
<path d="M0.672966 15.0244L1.47201 5.03632H10.653L11.452 15.0244C11.5228 15.9093 10.8238 16.6665 9.93602 16.6665H2.18895C1.30121 16.6665 0.602173 15.9093 0.672966 15.0244Z" stroke="#414141" stroke-linecap="round" stroke-linejoin="round"/>
<path d="M3.58252 7.56769V3.52604C3.58252 2.68402 4.08773 1 6.10856 1C8.12938 1 8.63459 2.68402 8.63459 3.52604V7.56769" stroke="#414141" stroke-linecap="round" stroke-linejoin="round"/>
<rect x="6" y="9" width="11" height="8" rx="4" fill="#414141"/>
<path d="M11.8424 15.084C11.5568 15.084 11.3048 15.0233 11.0864 14.902C10.868 14.7788 10.6972 14.608 10.574 14.3896C10.4527 14.1712 10.392 13.9192 10.392 13.6336V12.3344C10.392 12.0488 10.4527 11.7968 10.574 11.5784C10.6972 11.36 10.868 11.1901 11.0864 11.0688C11.3048 10.9456 11.5568 10.884 11.8424 10.884C12.128 10.884 12.3791 10.9456 12.5956 11.0688C12.814 11.1901 12.9848 11.36 13.108 11.5784C13.2312 11.7968 13.2928 12.0488 13.2928 12.3344V13.6336C13.2928 13.9192 13.2312 14.1712 13.108 14.3896C12.9848 14.608 12.814 14.7788 12.5956 14.902C12.3791 15.0233 12.128 15.084 11.8424 15.084ZM11.8424 14.4428C11.9843 14.4428 12.1131 14.4092 12.2288 14.342C12.3445 14.2729 12.436 14.1815 12.5032 14.0676C12.5704 13.9519 12.604 13.8231 12.604 13.6812V12.284C12.604 12.1403 12.5704 12.0115 12.5032 11.8976C12.436 11.7819 12.3445 11.6904 12.2288 11.6232C12.1131 11.5541 11.9843 11.5196 11.8424 11.5196C11.7005 11.5196 11.5717 11.5541 11.456 11.6232C11.3403 11.6904 11.2488 11.7819 11.1816 11.8976C11.1144 12.0115 11.0808 12.1403 11.0808 12.284V13.6812C11.0808 13.8231 11.1144 13.9519 11.1816 14.0676C11.2488 14.1815 11.3403 14.2729 11.456 14.342C11.5717 14.4092 11.7005 14.4428 11.8424 14.4428Z" fill="white"/>
</svg>
