<svg width="71" height="70" viewBox="0 0 71 70" fill="none" xmlns="http://www.w3.org/2000/svg">
<rect x="0.5" width="70" height="70" rx="4" fill="#EADFD8"/>
<path d="M58.3095 46.4037C58.1006 46.4037 57.8916 46.324 57.7321 46.1641L51.0115 39.4439L8.13268 29.5225C7.69334 29.4205 7.41933 28.982 7.5213 28.5422C7.62285 28.1029 8.06261 27.8293 8.50111 27.9308L51.6078 37.9048C51.7567 37.9396 51.8931 38.0151 52.0014 38.1234L58.8873 45.0093C59.2062 45.3283 59.2062 45.8452 58.8873 46.1641C58.7279 46.324 58.5185 46.4037 58.3095 46.4037Z" fill="#025162"/>
<path d="M11.6897 46.4038C11.4807 46.4038 11.2717 46.3241 11.1119 46.1642C10.793 45.8453 10.793 45.3283 11.1119 45.0094L17.9982 38.123C18.1065 38.0147 18.2429 37.9392 18.3918 37.9044L61.4985 27.9304C61.9374 27.8289 62.3768 28.1029 62.4783 28.5423C62.5803 28.9816 62.3063 29.4205 61.8665 29.5221L25.5493 37.9258L18.9881 39.4435L12.2671 46.1642C12.1076 46.3236 11.8987 46.4038 11.6897 46.4038Z" fill="#025162"/>
<path d="M31.9205 31.7486C31.9205 37.364 27.7927 42.0154 22.4061 42.8366C17.0194 42.0167 12.8916 37.364 12.8916 31.7486C12.8916 26.1341 17.016 24.1816 22.4006 23.8644H22.4103C27.7948 24.1816 31.9205 26.1345 31.9205 31.7486Z" fill="#EADFD8"/>
<path d="M60.5145 31.7487C60.5145 37.3272 56.4426 41.9547 51.1071 42.8196C45.7716 41.9547 41.6992 37.3272 41.6992 31.7487C41.6992 26.1703 45.7716 24.2065 51.1071 23.8712C56.4426 24.2065 60.5145 26.1703 60.5145 31.7487Z" fill="#EADFD8"/>
<path d="M31.8104 33.3244C31.6417 34.5279 31.2812 35.6713 30.7605 36.7204L25.5505 37.926L18.9885 39.4441L16.344 42.0886C15.8136 41.8641 15.305 41.6006 14.8204 41.3022L17.9994 38.1232C18.1073 38.0153 18.2436 37.9402 18.3926 37.905L31.376 34.9013L9.65906 29.8764C9.77361 29.3078 9.9402 28.7883 10.158 28.3146L31.8104 33.3244Z" fill="#025162"/>
<path d="M52.0025 38.124L55.1803 41.3022C54.6956 41.6014 54.1858 41.8641 53.6554 42.0873L51.0122 39.4441L39.2423 36.7212C38.7215 35.6713 38.3602 34.5291 38.1924 33.3244L59.8427 28.3146C60.0596 28.7883 60.227 29.3078 60.3403 29.8764L38.625 34.9013L51.6093 37.905C51.7583 37.9402 51.8946 38.0153 52.0025 38.124Z" fill="#025162"/>
<path d="M38.0795 32.5396C38.0053 32.5396 37.9306 32.5295 37.8555 32.5081C36.0037 31.9815 33.9933 31.9819 32.1432 32.5081C31.7089 32.6319 31.2574 32.3797 31.134 31.9459C31.0106 31.512 31.2624 31.0605 31.6963 30.9367C33.8376 30.3278 36.1598 30.3274 38.3024 30.9367C38.7363 31.0605 38.988 31.512 38.8647 31.9459C38.7627 32.305 38.4354 32.5396 38.0795 32.5396Z" fill="#E75313"/>
<path d="M49.2972 43.7821C42.6618 43.7821 37.2638 38.3841 37.2638 31.7486C37.2638 25.9436 41.3123 23 49.2972 23C49.9409 23 50.5674 23.0189 51.1587 23.0562C57.9091 23.4805 61.3319 26.4052 61.3319 31.7486C61.3319 34.6235 60.3017 37.406 58.4315 39.5838C56.5818 41.7381 54.0272 43.1736 51.238 43.6256C50.5997 43.7296 49.9468 43.7821 49.2972 43.7821ZM49.2972 24.6336C46.0141 24.6336 43.4863 25.1476 41.7835 26.1614C39.8415 27.3179 38.8974 29.1453 38.8974 31.7486C38.8974 37.4832 43.5627 42.1485 49.2972 42.1485C49.8591 42.1485 50.4243 42.1032 50.9761 42.0134C53.3856 41.6227 55.5932 40.3819 57.1924 38.5196C58.8083 36.6376 59.6983 34.2332 59.6983 31.7486C59.6983 29.3824 58.9237 27.667 57.3304 26.5034C55.9155 25.4707 53.8044 24.8593 51.0563 24.6865C50.4986 24.6512 49.9069 24.6336 49.2972 24.6336Z" fill="#E75313"/>
<path d="M20.7022 43.7842C14.0668 43.7842 8.66797 38.3857 8.66797 31.7503C8.66797 25.9453 12.7169 23.0021 20.7022 23.0021C28.6876 23.0021 32.7365 25.9453 32.7365 31.7503C32.7365 38.3857 27.3381 43.7842 20.7022 43.7842ZM20.7022 24.6357C17.4191 24.6357 14.8909 25.1497 13.1885 26.1631C11.2461 27.3195 10.302 29.147 10.302 31.7503C10.302 37.4848 14.9673 42.1506 20.7022 42.1506C26.4372 42.1506 31.1029 37.4852 31.1029 31.7503C31.1029 29.147 30.1588 27.3195 28.2164 26.1631C26.5135 25.1497 23.9853 24.6357 20.7022 24.6357Z" fill="#E75313"/>
</svg>
