<svg width="71" height="70" viewBox="0 0 71 70" fill="none" xmlns="http://www.w3.org/2000/svg">
<rect x="0.5" width="70" height="70" rx="4" fill="#EADFD8"/>
<path d="M63.4995 32.3395V28.8879C63.5112 28.4596 63.259 28.068 62.8643 27.9016C60.8919 27.1619 54.8041 25 50.736 25C45.824 25 40.912 27.0957 36 27.0957C31.088 27.0957 26.176 25 21.264 25C17.196 25 11.1081 27.162 9.13568 27.9016C8.74091 28.0679 8.48858 28.4596 8.5004 28.8879V32.3395C8.81739 32.626 9.14986 32.8951 9.49608 33.1455C10.2014 33.8882 10.7612 34.7567 11.146 35.7057L8.85123 38.7592C8.6235 39.0629 8.5004 39.4322 8.5004 39.8118V42.211C8.50158 43.1794 9.28628 43.9641 10.2547 43.9653H10.2641C10.9265 43.9641 11.5317 43.5899 11.8288 42.998L13.1374 40.3903C13.5836 41.2224 14.1598 41.9779 14.8443 42.6282C16.6181 44.1745 18.9121 44.991 21.2641 44.9135C23.5987 45.007 25.9161 44.4768 27.9777 43.3772C29.5408 42.4353 30.824 41.093 31.6949 39.4894C32.4924 37.8125 33.048 36.031 33.3449 34.1981C33.6862 32.8041 34.4639 31.2869 36 31.2869C37.5361 31.2869 38.3137 32.8041 38.6551 34.1981C38.952 36.031 39.5076 37.8125 40.305 39.4894C41.1759 41.0932 42.4591 42.4353 44.0222 43.3772C46.0838 44.4768 48.4013 45.007 50.7359 44.9135C53.0878 44.991 55.3817 44.1744 57.1556 42.6282C57.84 41.9778 58.4163 41.2224 58.8625 40.3903L60.1711 42.998C60.4683 43.5899 61.0735 43.9641 61.7357 43.9653H61.7452C62.7135 43.9641 63.4982 43.1794 63.4994 42.211V39.8118C63.4993 39.4323 63.3762 39.063 63.1486 38.7592L60.8538 35.7058C61.2387 34.7567 61.7984 33.8882 62.5038 33.1456C62.8501 32.8952 63.1824 32.6261 63.4995 32.3395Z" fill="#025162"/>
<path d="M13.1376 40.3904L11.829 42.9982C11.5319 43.59 10.9267 43.9642 10.2643 43.9654H10.2549C9.2865 43.9642 8.50179 43.1795 8.50061 42.2111V39.812C8.50072 39.4324 8.62382 39.0631 8.85144 38.7594L11.1463 35.7059C11.1937 35.8008 11.2316 35.8956 11.2696 35.9904C11.8011 37.494 12.425 38.9636 13.1376 40.3904Z" fill="#025162"/>
<path d="M25.1524 29.2103L15.831 38.5317C15.3118 37.5575 14.865 36.5465 14.4939 35.5067C14.3327 35.0801 14.162 34.6627 14.0009 34.2455C13.8396 33.8568 13.669 33.4775 13.4888 33.1171C13.178 32.5179 13.1452 31.8128 13.3986 31.1871C13.6521 30.5616 14.1666 30.0784 14.8069 29.8645C16.8426 29.2578 18.9438 28.898 21.0654 28.793C22.4371 28.8147 23.8046 28.9542 25.1524 29.2103Z" fill="#E75313"/>
<path d="M29.6185 30.4336L19.1402 40.9119C18.2538 40.7216 17.4309 40.307 16.7505 39.7077C16.3881 39.3627 16.0782 38.9666 15.8307 38.5318L25.1521 29.2104C26.1572 29.3906 27.1908 29.6088 28.2529 29.8363C28.3855 29.8647 28.5184 29.8837 28.6512 29.9121C29.0181 29.9866 29.3547 30.168 29.6185 30.4336Z" fill="#E75313"/>
<path d="M30.2251 32.7663C30.2061 32.8327 30.1872 32.9086 30.1682 32.9844C30.0639 33.4111 29.969 33.8378 29.8742 34.2551C29.6848 35.3589 29.3433 36.4312 28.8595 37.4413C28.2825 38.4944 27.4388 39.3773 26.413 40.0015C24.7573 40.8315 22.9143 41.2171 21.0647 41.1205C20.4172 41.125 19.7713 41.055 19.1398 40.9119L29.6181 30.4336C30.2261 31.045 30.4579 31.9362 30.2251 32.7663Z" fill="#E75313"/>
<path d="M58.5118 33.1172C58.3316 33.4775 58.1609 33.8569 57.9997 34.2456C57.8384 34.6628 57.6678 35.0801 57.5066 35.5068C56.8144 37.2896 56.2169 38.8353 55.2497 39.7077C54.0318 40.6888 52.4975 41.1913 50.9351 41.1206C49.3295 41.1774 47.7291 40.9064 46.2317 40.3241L56.7953 29.7605C56.9281 29.7984 57.0608 29.8269 57.1936 29.8648C57.8338 30.0786 58.3484 30.5619 58.6019 31.1875C58.8554 31.8129 58.8224 32.518 58.5118 33.1172Z" fill="#E75313"/>
<path d="M56.7954 29.7603L46.2318 40.3238C46.0104 40.2297 45.795 40.1221 45.5869 40.0015C44.6223 39.4128 43.8178 38.5952 43.2448 37.6214L52.0161 28.85C53.6308 29.0266 55.2289 29.331 56.7954 29.7603Z" fill="#E75313"/>
<path d="M52.0162 28.85L43.2448 37.6214C43.2069 37.5645 43.1784 37.4981 43.1405 37.4413C42.6567 36.4312 42.3153 35.359 42.1259 34.2551C42.031 33.8379 41.9362 33.4111 41.8319 32.9844C41.8129 32.9086 41.794 32.8327 41.7749 32.7664C41.5947 32.179 41.6605 31.5437 41.9572 31.0057C42.2539 30.4678 42.7562 30.0731 43.3491 29.9121C43.4819 29.8836 43.6146 29.8647 43.7474 29.8363C46.1013 29.2434 48.5099 28.8939 50.9352 28.7932C51.267 28.7931 51.6369 28.8121 52.0162 28.85Z" fill="#E75313"/>
<path d="M63.4999 39.812V42.2111C63.4988 43.1795 62.7141 43.9642 61.7457 43.9654H61.7362C61.0739 43.9642 60.4686 43.5901 60.1716 42.9982L58.863 40.3904C59.5756 38.9636 60.1995 37.4942 60.7311 35.9905C60.769 35.8957 60.8069 35.8008 60.8544 35.7061L63.1492 38.7595C63.3767 39.063 63.4998 39.4324 63.4999 39.812Z" fill="#025162"/>
</svg>
