<svg width="156" height="26" viewBox="0 0 156 26" fill="none" xmlns="http://www.w3.org/2000/svg">
<path d="M0.598191 24.6816V1.29792H5.01512V20.557H15.0831V24.6816H0.598191ZM17.8442 24.6816V1.29792H33.1086V5.42255H22.2611V10.4241H31.1599V14.5487H22.2611V20.557H33.1086V24.6816H17.8442ZM37.0008 24.6816V1.29792H41.4827L51.6481 16.8871V1.29792H56.13V24.6816H51.6481L41.4827 9.09249V24.6816H37.0008ZM69.4949 25.1688C67.7628 25.1688 66.1985 24.8657 64.8019 24.2594C63.4162 23.6424 62.2741 22.7655 61.3756 21.6288C60.4878 20.4812 59.9249 19.1172 59.6867 17.5366L64.2985 16.8546C64.6233 18.197 65.2945 19.2309 66.3121 19.9562C67.3297 20.6815 68.4881 21.0442 69.7872 21.0442C70.5125 21.0442 71.2162 20.9305 71.8982 20.7032C72.5803 20.4758 73.1378 20.1402 73.5708 19.6964C74.0147 19.2525 74.2366 18.7058 74.2366 18.0563C74.2366 17.8181 74.1987 17.5907 74.1229 17.3742C74.058 17.1469 73.9443 16.9358 73.7819 16.7409C73.6195 16.5461 73.3868 16.362 73.0837 16.1888C72.7914 16.0156 72.4179 15.8586 71.9632 15.7179L65.8899 13.9316C65.4352 13.8017 64.9048 13.6177 64.2985 13.3795C63.7031 13.1413 63.1239 12.8003 62.561 12.3565C61.998 11.9126 61.5271 11.328 61.1482 10.6027C60.7801 9.86654 60.5961 8.94093 60.5961 7.82588C60.5961 6.25614 60.9912 4.95163 61.7815 3.91235C62.5718 2.87307 63.6273 2.09903 64.9481 1.59022C66.2688 1.08141 67.7303 0.832412 69.3325 0.843238C70.9456 0.864889 72.3854 1.14095 73.652 1.67141C74.9186 2.20188 75.9796 2.97592 76.8348 3.99354C77.69 5.00034 78.3071 6.23448 78.686 7.69597L73.9118 8.5079C73.7386 7.7501 73.4193 7.11137 72.9537 6.59174C72.4882 6.0721 71.9307 5.67696 71.2812 5.40631C70.6424 5.13567 69.9712 4.98952 69.2676 4.96787C68.5747 4.94621 67.9198 5.04365 67.3027 5.26016C66.6964 5.46585 66.1985 5.76897 65.8087 6.16953C65.4298 6.57008 65.2404 7.04642 65.2404 7.59853C65.2404 8.10735 65.3973 8.52414 65.7113 8.84891C66.0252 9.16286 66.4204 9.41727 66.8967 9.61213C67.3731 9.807 67.8602 9.96938 68.3582 10.0993L72.4179 11.2035C73.0241 11.3659 73.6953 11.5824 74.4315 11.8531C75.1676 12.1129 75.8713 12.481 76.5425 12.9573C77.2245 13.4228 77.7821 14.0399 78.2151 14.8085C78.6589 15.5771 78.8809 16.5515 78.8809 17.7315C78.8809 18.9873 78.6156 20.0861 78.0852 21.0279C77.5655 21.959 76.8619 22.733 75.9741 23.3501C75.0864 23.9563 74.0796 24.411 72.9537 24.7141C71.8387 25.0172 70.6857 25.1688 69.4949 25.1688ZM82.7749 24.6816V1.29792H85.1619V22.392H96.2692V24.6816H82.7749ZM107.87 25.1688C105.543 25.1688 103.578 24.6546 101.976 23.6261C100.374 22.5868 99.1611 21.1524 98.3384 19.3229C97.5156 17.4933 97.1042 15.3823 97.1042 12.9898C97.1042 10.5973 97.5156 8.48625 98.3384 6.65669C99.1611 4.82713 100.374 3.39813 101.976 2.36967C103.578 1.3304 105.543 0.810761 107.87 0.810761C110.209 0.810761 112.174 1.3304 113.765 2.36967C115.367 3.39813 116.58 4.82713 117.403 6.65669C118.236 8.48625 118.653 10.5973 118.653 12.9898C118.653 15.3823 118.236 17.4933 117.403 19.3229C116.58 21.1524 115.367 22.5868 113.765 23.6261C112.174 24.6546 110.209 25.1688 107.87 25.1688ZM107.87 22.8791C109.7 22.8791 111.226 22.4624 112.45 21.6288C113.673 20.7952 114.588 19.6368 115.194 18.1537C115.811 16.6597 116.12 14.9384 116.12 12.9898C116.12 11.0411 115.811 9.32525 115.194 7.84211C114.588 6.35898 113.673 5.20062 112.45 4.36703C111.226 3.53345 109.7 3.11124 107.87 3.10042C106.041 3.10042 104.52 3.51721 103.307 4.3508C102.095 5.18438 101.18 6.34815 100.563 7.84211C99.9568 9.32525 99.6483 11.0411 99.6375 12.9898C99.6266 14.9384 99.9244 16.6543 100.531 18.1374C101.148 19.6098 102.068 20.7681 103.291 21.6125C104.514 22.4461 106.041 22.8683 107.87 22.8791ZM126.865 24.6816L118.811 1.29792H121.295L128.424 21.9698L135.602 1.29792H138.086L130.032 24.6816H126.865ZM140.522 24.6816V1.29792H155.137V3.58758H142.91V11.6744H153.189V13.9641H142.91V22.392H155.137V24.6816H140.522Z" fill="#EADFD8"/>
</svg>
