<svg width="156" height="25" viewBox="0 0 156 25" fill="none" xmlns="http://www.w3.org/2000/svg">
<path d="M0.598191 24V0.616279H5.01512V19.8754H15.0831V24H0.598191ZM17.8442 24V0.616279H33.1086V4.74091H22.2611V9.74243H31.1599V13.8671H22.2611V19.8754H33.1086V24H17.8442ZM37.0008 24V0.616279H41.4827L51.6481 16.2054V0.616279H56.13V24H51.6481L41.4827 8.41085V24H37.0008ZM69.4949 24.4872C67.7628 24.4872 66.1985 24.184 64.8019 23.5778C63.4162 22.9607 62.2741 22.0838 61.3756 20.9471C60.4878 19.7996 59.9249 18.4355 59.6867 16.855L64.2985 16.1729C64.6233 17.5153 65.2945 18.5492 66.3121 19.2745C67.3297 19.9999 68.4881 20.3625 69.7872 20.3625C70.5125 20.3625 71.2162 20.2489 71.8982 20.0215C72.5803 19.7942 73.1378 19.4586 73.5708 19.0147C74.0147 18.5709 74.2366 18.0242 74.2366 17.3746C74.2366 17.1364 74.1987 16.9091 74.1229 16.6926C74.058 16.4652 73.9443 16.2541 73.7819 16.0593C73.6195 15.8644 73.3868 15.6804 73.0837 15.5072C72.7914 15.3339 72.4179 15.177 71.9632 15.0362L65.8899 13.25C65.4352 13.1201 64.9048 12.936 64.2985 12.6979C63.7031 12.4597 63.1239 12.1187 62.561 11.6748C61.998 11.231 61.5271 10.6464 61.1482 9.92105C60.7801 9.1849 60.5961 8.25929 60.5961 7.14423C60.5961 5.57449 60.9912 4.26998 61.7815 3.23071C62.5718 2.19143 63.6273 1.41739 64.9481 0.908575C66.2688 0.399763 67.7303 0.150769 69.3325 0.161596C70.9456 0.183247 72.3854 0.459305 73.652 0.989769C74.9186 1.52023 75.9796 2.29428 76.8348 3.3119C77.69 4.3187 78.3071 5.55284 78.686 7.01432L73.9118 7.82626C73.7386 7.06845 73.4193 6.42973 72.9537 5.91009C72.4882 5.39045 71.9307 4.99531 71.2812 4.72467C70.6424 4.45402 69.9712 4.30788 69.2676 4.28622C68.5747 4.26457 67.9198 4.362 67.3027 4.57852C66.6964 4.78421 66.1985 5.08733 65.8087 5.48789C65.4298 5.88844 65.2404 6.36478 65.2404 6.91689C65.2404 7.4257 65.3973 7.8425 65.7113 8.16727C66.0252 8.48122 66.4204 8.73563 66.8967 8.93049C67.3731 9.12535 67.8602 9.28774 68.3582 9.41765L72.4179 10.5219C73.0241 10.6843 73.6953 10.9008 74.4315 11.1714C75.1676 11.4312 75.8713 11.7993 76.5425 12.2757C77.2245 12.7412 77.7821 13.3582 78.2151 14.1269C78.6589 14.8955 78.8809 15.8698 78.8809 17.0498C78.8809 18.3056 78.6156 19.4044 78.0852 20.3463C77.5655 21.2773 76.8619 22.0514 75.9741 22.6684C75.0864 23.2747 74.0796 23.7294 72.9537 24.0325C71.8387 24.3356 70.6857 24.4872 69.4949 24.4872ZM82.7749 24V0.616279H85.1619V21.7103H96.2692V24H82.7749ZM107.87 24.4872C105.543 24.4872 103.578 23.9729 101.976 22.9445C100.374 21.9052 99.1611 20.4708 98.3384 18.6412C97.5156 16.8117 97.1042 14.7006 97.1042 12.3081C97.1042 9.91564 97.5156 7.80461 98.3384 5.97505C99.1611 4.14549 100.374 2.71648 101.976 1.68803C103.578 0.648757 105.543 0.129119 107.87 0.129119C110.209 0.129119 112.174 0.648757 113.765 1.68803C115.367 2.71648 116.58 4.14549 117.403 5.97505C118.236 7.80461 118.653 9.91564 118.653 12.3081C118.653 14.7006 118.236 16.8117 117.403 18.6412C116.58 20.4708 115.367 21.9052 113.765 22.9445C112.174 23.9729 110.209 24.4872 107.87 24.4872ZM107.87 22.1975C109.7 22.1975 111.226 21.7807 112.45 20.9471C113.673 20.1135 114.588 18.9552 115.194 17.472C115.811 15.9781 116.12 14.2568 116.12 12.3081C116.12 10.3595 115.811 8.64361 115.194 7.16047C114.588 5.67734 113.673 4.51898 112.45 3.68539C111.226 2.85181 109.7 2.4296 107.87 2.41877C106.041 2.41877 104.52 2.83557 103.307 3.66915C102.095 4.50274 101.18 5.66651 100.563 7.16047C99.9568 8.64361 99.6483 10.3595 99.6375 12.3081C99.6266 14.2568 99.9244 15.9727 100.531 17.4558C101.148 18.9281 102.068 20.0865 103.291 20.9309C104.514 21.7645 106.041 22.1867 107.87 22.1975ZM126.865 24L118.811 0.616279H121.295L128.424 21.2881L135.602 0.616279H138.086L130.032 24H126.865ZM140.522 24V0.616279H155.137V2.90594H142.91V10.9928H153.189V13.2825H142.91V21.7103H155.137V24H140.522Z" fill="black"/>
</svg>
